<svg xmlns="http://www.w3.org/2000/svg" width="256" height="256"><path fill-opacity=".016" d="M0 128.004v128.004l128.25-.254 128.25-.254.254-127.75L257.008 0H0v128.004m.485.496c0 70.4.119 99.053.265 63.672.146-35.38.146-92.98 0-128C.604 29.153.485 58.1.485 128.5" fill="#1976D2" fill-rule="evenodd"/><path fill-opacity=".39" d="M112 4.592c-10.52 1.885-22.599 5.153-29.874 8.083C50.33 25.479 25.096 52.136 14.137 84.5c-6.161 18.194-8.096 39.941-4.058 45.611 4.153 5.832 11.546 7.523 17.303 3.958 4.664-2.888 6.289-6.591 7.05-16.069 1.909-23.788 10.92-44.057 26.645-59.939 19.792-19.989 45.986-29.535 73.962-26.953 24.883 2.296 47.014 13.886 62.605 32.787L203 70.389l-9.133 5.055c-10.657 5.899-13.101 9.162-10.881 14.523.709 1.71 2.161 3.577 3.228 4.148C189.761 96.013 232.319 108 235.512 108c1.972 0 3.914-.837 5.222-2.25 2.287-2.47 15.289-45.499 15.234-50.414-.036-3.236-1.5-5.494-4.652-7.173-3.555-1.893-5.332-1.41-15.475 4.209l-9.658 5.351-4.519-6.154c-10.243-13.95-29.495-29.522-45.31-36.647-7.553-3.404-18.865-7.1-27.354-8.939-5.569-1.206-32.403-2.215-37-1.391m9.402 51.739c-2.197 1.889-2.798 3.402-3.18 8-.318 3.835-.903 5.669-1.808 5.669-3.433 0-12.662 4.466-16.853 8.155-7.171 6.313-9.059 10.681-9.01 20.845.033 6.873.484 9.361 2.358 13 3.354 6.514 10.987 13.306 18.58 16.533L118 131.3v31.692l-5.168-1.964c-2.843-1.08-6.869-3.33-8.947-5.001-5.506-4.424-8.343-5.28-12.183-3.675-4.161 1.739-5.665 3.648-6.389 8.109-.547 3.368-.219 3.997 4.408 8.457 5.403 5.208 15.071 10.472 22.887 12.462l4.892 1.246.636 5.437c.84 7.188 1.568 8.732 4.936 10.474 8.207 4.244 14.928-1.192 14.928-12.075 0-4.027.17-4.271 3.389-4.875 5.968-1.12 15.396-6.536 19.507-11.206 4.856-5.516 7.104-11.809 7.104-19.881 0-13.66-7.349-23.915-21.5-30.002l-8-3.442-.278-14.113-.278-14.114 3.278.707c1.803.39 4.948 1.553 6.988 2.586 5.006 2.534 8.06 2.363 11.64-.649 3.837-3.229 4.787-7.341 2.65-11.472-1.879-3.634-10.727-8.284-19.051-10.012l-5.181-1.075-.603-5.207c-.452-3.89-1.258-5.776-3.19-7.457-3.531-3.072-9.45-3.036-13.073.081M114.5 91.155c-3.236 1.77-4.5 3.989-4.5 7.901 0 3.835 2.616 8.133 6.078 9.986 1.837.983 1.922.584 1.922-9.007 0-5.519-.338-10.021-.75-10.005-.412.017-1.65.523-2.75 1.125m114.141 30.743c-4.843 3.193-6.322 6.529-7.057 15.926-1.867 23.841-10.89 44.187-26.661 60.115-19.792 19.989-45.986 29.535-73.962 26.953-24.883-2.296-47.014-13.886-62.605-32.787L53 185.611l9.133-5.055c10.657-5.899 13.101-9.162 10.881-14.523-.709-1.71-2.161-3.577-3.228-4.148-4.401-2.355-46.491-13.933-49.687-13.668-2.271.189-4.031 1.132-5.299 2.837C12.579 154.043.038 196.092.053 200.5c.012 3.385 1.43 5.632 4.631 7.337 3.555 1.893 5.332 1.41 15.475-4.209l9.658-5.351 4.519 6.154c10.243 13.95 29.495 29.522 45.31 36.647 17.403 7.842 29.782 10.391 50.354 10.371 18.609-.018 28.132-1.785 43.944-8.152 31.722-12.774 56.97-39.464 67.919-71.797 6.161-18.194 8.096-39.941 4.058-45.611-4.124-5.792-11.844-7.575-17.28-3.991M138 150.067c0 12.049.003 12.067 2.25 11.388 3.159-.954 7.474-5.219 8.198-8.102 1.111-4.429-1.196-10.109-5.215-12.841-2.034-1.382-4.043-2.512-4.465-2.512-.422 0-.768 5.43-.768 12.067" fill="#1976D2" fill-rule="evenodd"/><path fill-opacity=".477" d="M112 5.019C85.019 8.761 61.887 20.167 43.027 39.027c-17.879 17.879-29.52 40.567-33.543 65.376-3.036 18.713-1.502 26.462 5.933 29.991 4.47 2.121 7.39 2.021 11.342-.389 5.262-3.208 6.878-6.913 7.535-17.28 2.35-37.038 27.235-69.54 62.464-81.588 28.5-9.746 62.285-4.229 85.968 14.039 5.651 4.358 17.503 16.516 19.21 19.704.945 1.766.212 2.423-7.23 6.479-4.555 2.483-9.082 5.399-10.06 6.48-2.596 2.868-1.87 8.93 1.354 11.301 2.596 1.908 45.852 14.86 49.631 14.86 4.958 0 6.285-2.67 13.43-27.031 3.785-12.908 6.895-24.456 6.911-25.663.015-1.207-1.039-3.435-2.344-4.952-1.834-2.132-3.202-2.734-6.029-2.654-2.012.057-4.207.528-4.878 1.047-.672.519-4.679 2.829-8.906 5.133l-7.686 4.189-5.4-7.285c-16.368-22.075-43.409-38.8-71.628-44.302-9.533-1.859-28.777-2.617-37.101-1.463m10.018 50.933c-1.979 1.52-2.588 3.068-3 7.63l-.518 5.723-5.261 1.71c-16.315 5.304-25.048 18.172-22.271 32.815 2.162 11.399 7.792 18.07 20.255 23.997l7.723 3.673.027 15.75c.02 11.953-.274 15.748-1.223 15.74-2.284-.018-11.845-4.923-15.552-7.978-6.202-5.113-13.553-3.47-16.253 3.632-2.68 7.051 8.506 16.618 25.555 21.857l7 2.151.294 6.041c.241 4.938.753 6.472 2.807 8.402 3.452 3.243 9.366 3.224 12.843-.042 2.198-2.066 2.556-3.253 2.556-8.486v-6.085l7.066-2.226c17.324-5.458 26.002-18.553 23.187-34.989-2.062-12.036-9.602-20.342-23.374-25.745L137 116.823v-13.852c0-7.619.347-14.067.771-14.33.424-.262 4.137.841 8.25 2.45 4.921 1.926 8.416 2.727 10.217 2.341 3.837-.821 6.762-4.921 6.762-9.478 0-6.019-6.029-10.181-19.739-13.624L137 68.757v-4.926c0-4.043-.475-5.366-2.646-7.379-3.253-3.014-8.773-3.238-12.336-.5m-7.704 34.998c-1.753 1.069-3.706 2.914-4.342 4.102-1.748 3.267-.263 8.874 3.211 12.119 5.233 4.888 5.817 4.118 5.817-7.671 0-5.775-.338-10.498-.75-10.496-.412.002-2.184.878-3.936 1.946m114.927 31.045c-5.262 3.208-6.878 6.913-7.535 17.28-2.35 37.038-27.235 69.54-62.464 81.588-28.5 9.746-62.285 4.229-85.968-14.039-5.651-4.358-17.503-16.516-19.21-19.704-.945-1.766-.212-2.423 7.23-6.479 4.555-2.483 9.082-5.399 10.06-6.48 2.596-2.868 1.87-8.93-1.354-11.301C67.404 160.952 24.148 148 20.369 148c-4.958 0-6.285 2.67-13.43 27.031C3.154 187.939.044 199.487.028 200.694c-.015 1.207 1.039 3.435 2.344 4.952 1.834 2.132 3.202 2.734 6.029 2.654 2.012-.057 4.207-.528 4.878-1.047.672-.519 4.682-2.83 8.912-5.136l7.691-4.192 4.195 5.788c14.024 19.346 35.49 34.672 58.998 42.123 13.913 4.41 21.848 5.581 37.425 5.527 31.976-.111 59.794-11.711 82.473-34.39 17.879-17.879 29.52-40.567 33.543-65.376 3.036-18.713 1.502-26.462-5.933-29.991-4.47-2.121-7.39-2.021-11.342.389M137 149.833c0 6.509.281 12.114.624 12.457.343.344 2.359-.261 4.479-1.343 8.777-4.477 9.1-15.804.598-20.987-5.545-3.381-5.701-3.111-5.701 9.873" fill="#1976D2" fill-rule="evenodd"/><path fill-opacity=".975" d="M115.5 5.093c-19.717 1.793-42.08 10.204-58 21.814-22.031 16.067-38.622 40.36-45.432 66.526-2.974 11.424-4.636 29.781-3.045 33.622 3.974 9.594 16.854 10.886 22.507 2.259 1.083-1.653 1.991-6.252 2.585-13.096 1.491-17.176 5.75-29.975 14.443-43.414C71.255 37.718 114.151 21.968 154 34.088c16.029 4.875 34.527 17.15 43.758 29.036 2.608 3.359 4.742 6.571 4.742 7.138 0 .568-3.6 3.004-8 5.414C185.416 80.652 183 83.031 183 87c0 5.634 2.012 6.655 27.869 14.149 26.162 7.583 27.261 7.678 30.506 2.647 2.498-3.875 14.679-47.731 14.004-50.422-.776-3.092-4.032-5.374-7.667-5.374-1.563 0-6.921 2.25-11.906 5s-9.343 4.99-9.685 4.979c-.341-.012-1.841-1.746-3.331-3.855C198.675 20.018 157.631 1.261 115.5 5.093m8.857 49.861C120.943 56.392 119 60.048 119 65.033v4.588l-5.958 1.785c-11.437 3.426-20.244 12.093-21.622 21.276-2.639 17.599 5.692 30.094 24.83 37.241l2.75 1.027v16.025c0 14.604-.155 16.023-1.75 16.003-2.764-.035-9.807-3.548-14.884-7.425-5.577-4.258-9.073-4.511-13.289-.964-2.441 2.054-3.077 3.374-3.077 6.385 0 3.15.721 4.495 4.238 7.909 4.843 4.701 15.802 10.347 23.512 12.113l5.25 1.203v5.946c0 7.611 2.69 10.855 9 10.855 6.319 0 9-3.242 9-10.884v-5.974l5.75-1.65c15.712-4.507 24.544-15.126 24.544-29.508 0-15.176-6.84-24.383-22.965-30.911l-6.829-2.765-.277-14.654c-.215-11.374.009-14.649 1-14.63.702.013 3.977 1.136 7.277 2.495 9.083 3.742 13.506 3.303 16.037-1.591 4.28-8.277-.984-13.852-16.884-17.88l-7.153-1.812-.528-5.118c-.331-3.213-1.263-5.853-2.503-7.094-2.35-2.349-7.127-3.328-10.112-2.07m-11.822 37.15c-2.954 2.593-3.535 3.769-3.535 7.154 0 3.433.617 4.639 4.042 7.897 2.223 2.115 4.473 3.845 5 3.845.553 0 .958-4.656.958-11 0-12.516-.503-13.131-6.465-7.896M226.6 124.467c-3.646 3.646-3.876 4.505-5.101 19.033-3.694 43.808-42.235 80-87.547 82.212-23.407 1.142-44.186-5.552-62.719-20.206-7.584-5.997-17.733-17.311-17.733-19.768 0-.568 3.6-3.004 8-5.414C70.584 175.348 73 172.969 73 169c0-5.634-2.012-6.655-27.869-14.149-26.162-7.583-27.261-7.678-30.506-2.647-2.498 3.875-14.679 47.731-14.004 50.422.776 3.092 4.032 5.374 7.667 5.374 1.563 0 6.921-2.25 11.906-5s9.343-4.99 9.685-4.979c.341.012 1.841 1.746 3.331 3.855 23.931 33.845 64.582 52.58 106.352 49.014 20.628-1.762 42.615-9.893 58.938-21.797 22.031-16.067 38.622-40.36 45.432-66.526 2.974-11.424 4.636-29.781 3.045-33.622-2.105-5.083-6.435-7.945-12.02-7.945-4.247 0-5.347.456-8.357 3.467M137 150c0 7.15.239 13 .532 13 .293 0 2.017-.62 3.832-1.379 7.704-3.219 10.191-12.431 5.017-18.58-2.272-2.7-7.156-6.041-8.831-6.041-.303 0-.55 5.85-.55 13" fill="#1976D2" fill-rule="evenodd"/></svg>